<?xml version="1.0" standalone="no"?>
<!DOCTYPE svg PUBLIC "-//W3C//DTD SVG 20010904//EN"
 "http://www.w3.org/TR/2001/REC-SVG-20010904/DTD/svg10.dtd">
<svg version="1.0" xmlns="http://www.w3.org/2000/svg"
 width="630.000000pt" height="630.000000pt" viewBox="0 0 630.000000 630.000000"
 preserveAspectRatio="xMidYMid meet">
<metadata>
Created by potrace 1.10, written by Peter Selinger 2001-2011
</metadata>
<g transform="translate(0.000000,630.000000) scale(0.100000,-0.100000)"
fill="#000000" stroke="none">
<path d="M860 6284 c0 -9 -6 -28 -14 -42 -27 -53 -46 -103 -46 -122 0 -10 -4
-21 -9 -25 -5 -3 -12 -31 -16 -63 -4 -31 -13 -77 -21 -101 -26 -82 -12 -164
18 -107 21 39 109 129 158 160 87 57 288 81 420 51 36 -8 101 -22 145 -31 44
-9 88 -21 98 -26 10 -5 39 -13 65 -18 47 -8 88 -21 149 -47 17 -7 42 -13 55
-13 21 0 68 -13 153 -42 17 -6 48 -14 70 -19 22 -4 83 -17 135 -29 138 -30
221 -38 344 -34 105 4 144 12 281 54 146 45 187 64 310 138 141 85 375 284
375 319 0 11 -230 13 -1335 13 -1216 0 -1335 -1 -1335 -16z"/>
<path d="M4470 6287 c0 -12 -115 -93 -191 -133 -19 -11 -67 -41 -107 -69 -41
-27 -79 -53 -85 -57 -128 -75 -169 -98 -173 -98 -4 0 -26 -13 -51 -30 -24 -16
-48 -30 -53 -30 -18 0 -132 -105 -173 -159 -46 -60 -60 -88 -85 -166 -15 -45
-17 -282 -22 -2355 -6 -1949 -9 -2326 -21 -2440 -9 -74 -21 -145 -27 -157 -7
-12 -12 -31 -12 -42 0 -27 -25 -84 -92 -210 -39 -74 -129 -163 -199 -198 -113
-56 -133 -62 -219 -74 -148 -21 -234 -13 -326 27 -59 26 -227 105 -244 115 -8
5 -22 12 -30 16 -8 3 -31 18 -50 33 -19 15 -42 30 -50 33 -8 4 -27 15 -41 25
-14 9 -75 49 -135 89 -60 39 -140 93 -177 120 -98 70 -190 123 -211 123 -5 0
-25 13 -45 28 -34 26 -67 44 -143 77 -18 7 -49 21 -70 29 -20 9 -43 16 -52 16
-9 0 -28 8 -43 17 -38 25 -283 25 -368 -1 -83 -25 -152 -54 -197 -82 -21 -13
-40 -24 -44 -24 -3 0 -23 -13 -44 -30 -21 -16 -43 -30 -50 -30 -13 0 -240
-224 -314 -310 -26 -30 -63 -80 -83 -110 -19 -30 -44 -67 -54 -82 -11 -15 -19
-29 -19 -32 0 -2 -16 -28 -35 -58 l-35 -53 1597 -3 c917 -1 1607 1 1618 7 101
44 206 100 258 135 34 23 84 55 111 71 27 17 60 38 75 47 14 10 33 21 41 25 8
3 22 12 30 20 8 7 62 48 120 91 149 110 224 180 291 270 45 62 99 170 99 200
0 15 7 52 15 82 13 47 15 207 15 1146 0 902 2 1093 13 1102 10 8 217 13 708
15 688 4 735 6 839 40 l45 14 0 384 0 384 -800 5 -800 5 -2 880 c-3 967 -7
898 59 1031 17 34 47 81 67 104 33 39 39 42 59 31 12 -6 22 -19 22 -27 0 -22
171 -186 218 -210 20 -10 51 -29 68 -41 16 -12 52 -32 80 -44 27 -11 63 -27
81 -35 17 -8 37 -14 45 -14 7 0 31 -7 53 -15 55 -19 306 -21 343 -1 15 7 59
28 97 46 39 19 89 46 113 62 24 15 46 28 49 28 3 0 22 14 43 30 21 17 42 30
47 30 5 0 16 8 24 18 9 9 40 40 70 68 95 90 170 185 198 251 6 11 15 24 20 28
6 3 11 13 11 21 0 12 -115 14 -835 14 -677 0 -835 -2 -835 -13z"/>
<path d="M3030 5635 c-137 -20 -269 -71 -385 -149 -167 -112 -283 -253 -385
-466 -12 -25 -26 -53 -31 -62 -21 -40 -55 -147 -86 -273 -11 -42 -17 -144 -22
-335 l-6 -275 -150 -7 c-140 -6 -202 -14 -300 -39 -22 -6 -58 -14 -81 -18 -22
-4 -55 -16 -72 -27 -17 -10 -52 -32 -78 -48 -26 -16 -61 -44 -78 -63 -27 -31
-90 -130 -99 -158 -2 -5 -10 -26 -17 -45 -7 -19 -16 -60 -20 -90 -5 -30 -14
-79 -20 -109 -15 -65 -8 -400 9 -448 26 -76 33 -100 40 -133 9 -42 40 -92 52
-84 5 3 9 17 9 31 0 30 21 69 80 148 90 121 155 166 288 201 53 14 107 18 252
19 l185 0 3 -880 c3 -1024 2 -1045 -74 -1222 -8 -17 -14 -36 -14 -42 0 -6 -14
-37 -30 -68 -17 -31 -30 -60 -30 -64 0 -12 37 -11 44 0 3 5 25 19 48 31 24 12
67 39 96 59 77 52 105 70 122 78 18 8 73 45 80 54 3 3 36 27 73 53 165 112
311 253 384 371 26 42 113 225 113 237 0 8 5 19 11 25 5 5 15 39 20 74 6 35
14 87 19 114 5 28 9 664 10 1415 0 805 5 1412 10 1480 19 221 48 392 69 413 6
6 11 20 11 32 0 18 59 151 106 237 8 14 14 31 14 37 0 14 -58 12 -170 -4z"/>
</g>
</svg>
